# xmcd
#
# Track frame offsets: 
#        150
#        16577
#        37682
#        54947
#        75450
#        97980
#        115790
#        130022
#        150420
#        169420
#        187355
#
# Disc length: 2759 seconds
#
# Revision: 0
# Processed by: cddbd v1.5.2PL0 Copyright (c) Steve Scherf et al.
# Submitted via: ExactAudioCopy v0.99pb4
#
DISCID=750ac50b
DTITLE=Mary Jo Eustace - Bone and Marrow
DYEAR=1994
DGENRE=Pop
TTITLE0=Promise of Yesterday
TTITLE1=In This Bed
TTITLE2=Hurricane
TTITLE3=Birds
TTITLE4=Heir to the Throne
TTITLE5=Let's Fall Together
TTITLE6=By Any Other Name
TTITLE7=Harder
TTITLE8=Loose Change
TTITLE9=Tell Me Why
TTITLE10=Full Moon
EXTD=
EXTT0=
EXTT1=
EXTT2=
EXTT3=
EXTT4=
EXTT5=
EXTT6=
EXTT7=
EXTT8=
EXTT9=
EXTT10=
PLAYORDER=
